HIERARCHY
ROOT joint_Root
{
	OFFSET 0.0 0.0 0.0
	CHANNELS 6 Xposition Yposition Zposition Zrotation Xrotation Yrotation 
	JOINT Hips
	{
		OFFSET 4.5925 91.4895 -427.239
		CHANNELS 6 Xposition Yposition Zposition Zrotation Xrotation Yrotation 
		JOINT Spine
		{
			OFFSET 15.7357 0.0 0.0
			CHANNELS 6 Xposition Yposition Zposition Zrotation Xrotation Yrotation 
			JOINT Chest
			{
				OFFSET 8.98455 -0.406207 0.0
				CHANNELS 6 Xposition Yposition Zposition Zrotation Xrotation Yrotation 
				JOINT Neck
				{
					OFFSET 16.3773 0.0 0.0
					CHANNELS 6 Xposition Yposition Zposition Zrotation Xrotation Yrotation 
					JOINT Head
					{
						OFFSET 6.45672 0.0 0.0
						CHANNELS 6 Xposition Yposition Zposition Zrotation Xrotation Yrotation 
						End Site
						{
							OFFSET 0.0 0.0 0.0
						}
					}
				}
				JOINT Shoulder_L
				{
					OFFSET 12.9942 -0.242716 4.98039
					CHANNELS 6 Xposition Yposition Zposition Zrotation Xrotation Yrotation 
					JOINT UpperArm_L
					{
						OFFSET 5.34809 0.0 0.0
						CHANNELS 6 Xposition Yposition Zposition Zrotation Xrotation Yrotation 
						JOINT LowerArm_L
						{
							OFFSET 24.3286 1.87007e-05 0.0
							CHANNELS 6 Xposition Yposition Zposition Zrotation Xrotation Yrotation 
							JOINT Hand_L
							{
								OFFSET 22.2916 0.0 0.0
								CHANNELS 6 Xposition Yposition Zposition Zrotation Xrotation Yrotation 
								End Site
								{
									OFFSET 0.0 0.0 0.0
								}
							}
						}
					}
				}
				JOINT Shoulder_R
				{
					OFFSET 12.9945 -0.242716 -4.98039
					CHANNELS 6 Xposition Yposition Zposition Zrotation Xrotation Yrotation 
					JOINT UpperArm_R
					{
						OFFSET -5.34813 0.0 0.0
						CHANNELS 6 Xposition Yposition Zposition Zrotation Xrotation Yrotation 
						JOINT LowerArm_R
						{
							OFFSET -24.3289 0.000322201 0.0
							CHANNELS 6 Xposition Yposition Zposition Zrotation Xrotation Yrotation 
							JOINT Hand_R
							{
								OFFSET -22.2915 -0.000108084 0.0
								CHANNELS 6 Xposition Yposition Zposition Zrotation Xrotation Yrotation 
								End Site
								{
									OFFSET 0.0 0.0 0.0
								}
							}
						}
					}
				}
			}
		}
		JOINT UpperLeg_L
		{
			OFFSET -2.19248 -6.46944 0.0
			CHANNELS 6 Xposition Yposition Zposition Zrotation Xrotation Yrotation 
			JOINT LowerLeg_L
			{
				OFFSET 39.0811 0.0 -1.23785e-05
				CHANNELS 6 Xposition Yposition Zposition Zrotation Xrotation Yrotation 
				JOINT Foot_L
				{
					OFFSET 40.9854 0.0 -1.26872e-05
					CHANNELS 6 Xposition Yposition Zposition Zrotation Xrotation Yrotation 
					JOINT Toes_L
					{
						OFFSET 11.7543 0.0 0.0
						CHANNELS 6 Xposition Yposition Zposition Zrotation Xrotation Yrotation 
						End Site
						{
							OFFSET 0.0 0.0 0.0
						}
					}
				}
			}
		}
		JOINT UpperLeg_R
		{
			OFFSET -2.19251 6.46944 0.0
			CHANNELS 6 Xposition Yposition Zposition Zrotation Xrotation Yrotation 
			JOINT LowerLeg_R
			{
				OFFSET -39.0811 -0.00228153 -0.0401928
				CHANNELS 6 Xposition Yposition Zposition Zrotation Xrotation Yrotation 
				JOINT Foot_R
				{
					OFFSET -40.9854 0.0 0.0
					CHANNELS 6 Xposition Yposition Zposition Zrotation Xrotation Yrotation 
					JOINT Toes_R
					{
						OFFSET -11.7543 0.0 0.0
						CHANNELS 6 Xposition Yposition Zposition Zrotation Xrotation Yrotation 
						End Site
						{
							OFFSET 0.0 0.0 0.0
						}
					}
				}
			}
		}
	}
}
MOTION
Frames:	6
Frame Time:	0.0333333
0.000000 0.000000 0.000000 0.000000 0.000000 -0.000000 95.579100 83.236100 187.444000 -80.157200 46.540600 175.722000 15.735700 0.000005 -0.000001 74.997900 83.159600 -73.618100 8.984550 -0.406207 -0.000000 5.501220 -3.560380 2.928280 16.377300 -0.000001 -0.000001 0.642842 9.545760 -1.997330 6.456720 -0.000001 -0.000000 -1.151730 14.883100 -4.503900 12.994200 -0.242716 4.980390 -91.105500 3.318450 -71.564300 5.348090 -0.000007 -0.000001 -70.016800 25.079800 -9.587790 24.328600 0.000019 0.000005 14.331600 6.945280 -64.686200 22.291600 -0.000001 0.000005 14.165000 5.457120 -4.898950 12.994500 -0.242716 -4.980390 87.077700 13.781500 -77.905100 -5.348130 -0.000001 -0.000004 -51.212400 39.453400 -2.811110 -24.328900 0.000322 -0.000009 -11.884100 -1.154570 -84.533800 -22.291500 -0.000108 -0.000004 30.028800 5.585570 -10.518300 -2.192480 -6.469440 -0.000000 -166.333000 4.387050 -1.819940 39.081100 -0.000007 -0.000012 0.256934 -0.095373 69.634200 40.985400 -0.000006 -0.000013 12.003800 -6.755500 -44.697500 11.754300 -0.000000 0.000003 -0.010103 -0.104413 -20.831000 -2.192510 6.469440 -0.000001 175.849000 22.881000 154.083000 -39.081100 -0.002282 -0.040193 -0.079165 0.059073 54.361300 -40.985400 0.000008 0.000006 -3.955860 11.764500 -72.298000 -11.754300 -0.000006 -0.000006 -0.000916 -0.014212 -17.151100
0.000000 0.000000 0.000000 0.000000 0.000000 -0.000000 98.630500 84.471400 185.424000 -81.502100 45.389900 177.256000 15.735700 0.000005 -0.000001 87.934400 83.130600 -86.817800 8.984550 -0.406207 -0.000000 5.970000 -0.511350 2.257460 16.377300 -0.000001 -0.000001 0.507594 8.718600 -0.857893 6.456720 -0.000001 -0.000000 -0.763123 13.528000 -4.330280 12.994200 -0.242716 4.980390 -91.464800 4.385990 -71.512700 5.348090 -0.000007 -0.000001 -68.590400 28.184100 1.867020 24.328600 0.000019 0.000005 13.274300 7.873480 -59.859100 22.291600 -0.000001 0.000005 8.766730 5.528390 -7.736350 12.994500 -0.242716 -4.980390 87.714100 11.894200 -79.039200 -5.348130 -0.000001 -0.000004 -50.844700 42.129500 -16.224300 -24.328900 0.000322 -0.000009 -9.891190 0.353952 -92.028900 -22.291500 -0.000108 -0.000004 26.991500 5.587280 -10.609100 -2.192480 -6.469440 -0.000000 -169.509000 3.296130 -8.596460 39.081100 -0.000007 -0.000012 0.194049 -0.044228 77.158300 40.985400 -0.000006 -0.000013 15.972300 -10.630000 -49.128000 11.754300 -0.000000 0.000003 -0.010763 -0.109265 -21.029600 -2.192510 6.469440 -0.000001 174.535000 22.156000 159.442000 -39.081100 -0.002282 -0.040193 0.075106 -0.057380 51.394300 -40.985400 0.000008 0.000006 -3.276740 9.762130 -74.207700 -11.754300 -0.000006 -0.000006 -0.000623 -0.009902 -16.976000
0.000000 0.000000 0.000000 0.000000 0.000000 -0.000000 101.315000 86.468700 183.234000 -82.632600 44.031700 177.692000 15.735700 0.000005 -0.000001 98.354700 83.162100 -97.618100 8.984550 -0.406207 -0.000000 5.755010 1.969220 1.372770 16.377300 -0.000001 -0.000001 0.614733 8.105450 0.123453 6.456720 -0.000001 -0.000000 -0.796160 11.398000 -3.618410 12.994200 -0.242716 4.980390 -91.540500 4.181010 -69.751000 5.348090 -0.000007 -0.000001 -66.539700 37.460400 13.830800 24.328600 0.000019 0.000005 9.359350 4.579750 -64.155800 22.291600 -0.000001 0.000005 8.149730 5.547760 -8.601260 12.994500 -0.242716 -4.980390 88.396000 9.792660 -80.651600 -5.348130 -0.000001 -0.000004 -47.849700 42.120000 -30.291400 -24.328900 0.000322 -0.000009 -9.318670 1.517240 -99.166400 -22.291500 -0.000108 -0.000004 24.875800 5.601020 -11.406900 -2.192480 -6.469440 -0.000000 -172.774000 3.087110 -15.695500 39.081100 -0.000007 -0.000012 0.160659 -0.028745 79.853300 40.985400 -0.000006 -0.000013 14.067100 -6.617740 -52.801400 11.754300 -0.000000 0.000003 -0.009690 -0.101315 -20.704400 -2.192510 6.469440 -0.000001 173.542000 21.975900 165.209000 -39.081100 -0.002282 -0.040193 0.054401 -0.051290 44.914600 -40.985400 0.000008 0.000006 -4.101210 8.335350 -72.592700 -11.754300 -0.000006 -0.000006 -0.387678 -0.479894 -17.527400
0.000000 0.000000 0.000000 0.000000 0.000000 -0.000000 103.751000 88.637900 180.843000 -83.523900 42.736400 177.946000 15.735700 0.000005 -0.000001 112.112000 82.789600 -111.772000 8.984550 -0.406207 -0.000000 5.597750 5.408830 0.414229 16.377300 -0.000001 -0.000001 0.817630 6.735590 0.475771 6.456720 -0.000001 -0.000000 -0.856038 7.948690 -2.379480 12.994200 -0.242716 4.980390 -90.475500 1.212850 -68.586000 5.348090 -0.000007 -0.000001 -68.807800 44.400000 24.259900 24.328600 0.000019 0.000005 8.174210 3.239900 -68.522700 22.291600 -0.000001 0.000005 6.247710 5.553340 -8.869250 12.994500 -0.242716 -4.980390 88.964400 6.851060 -81.383200 -5.348130 -0.000001 -0.000004 -46.328400 38.882000 -40.769000 -24.328900 0.000322 -0.000009 -9.407400 2.633620 -105.499000 -22.291500 -0.000108 -0.000004 23.024200 5.602280 -11.480500 -2.192480 -6.469440 -0.000000 -175.910000 2.468790 -21.077200 39.081100 -0.000007 -0.000012 0.116792 -0.025391 77.731500 40.985400 -0.000006 -0.000013 11.868100 -2.993080 -57.069700 11.754300 -0.000000 0.000003 -0.009250 -0.097956 -20.567000 -2.192510 6.469440 -0.000001 172.288000 22.580300 171.244000 -39.081100 -0.002282 -0.040193 0.013765 -0.013828 37.155800 -40.985400 0.000008 0.000006 -4.640110 8.430020 -67.517300 -11.754300 -0.000006 -0.000006 -1.510590 -1.762580 -20.256500
0.000000 0.000000 0.000000 0.000000 0.000000 -0.000000 106.033000 90.558000 178.520000 -84.405800 41.379000 177.656000 15.735700 0.000005 -0.000001 122.917000 82.212000 -123.089000 8.984550 -0.406207 -0.000000 5.368360 8.449060 -0.742379 16.377300 -0.000001 -0.000001 0.784494 5.270760 0.597919 6.456720 -0.000001 -0.000000 -1.227600 4.727690 -1.225800 12.994200 -0.242716 4.980390 -89.207200 -1.960600 -67.980500 5.348090 -0.000007 -0.000001 -71.119900 47.250300 33.828900 24.328600 0.000019 0.000005 7.410180 2.191240 -73.620100 22.291600 -0.000001 0.000005 3.534600 5.554150 -8.901680 12.994500 -0.242716 -4.980390 89.420900 3.919990 -81.590000 -5.348130 -0.000001 -0.000004 -45.586500 34.311800 -48.949100 -24.328900 0.000322 -0.000009 -11.012100 4.102850 -110.185000 -22.291500 -0.000108 -0.000004 22.347600 5.592860 -10.924400 -2.192480 -6.469440 -0.000000 -178.649000 1.032000 -25.424800 39.081100 -0.000007 -0.000012 0.072460 -0.024038 71.642600 40.985400 -0.000006 -0.000013 9.934750 -1.912840 -60.191900 11.754300 -0.000000 0.000003 -0.009396 -0.099077 -20.612900 -2.192510 6.469440 -0.000001 170.888000 25.140100 176.114000 -39.081100 -0.002282 -0.040193 0.003975 -0.001150 30.356900 -40.985400 0.000008 0.000006 -4.784120 10.172400 -61.799700 -11.754300 -0.000006 -0.000006 -0.093472 -0.211457 -21.949600
0.000000 0.000000 0.000000 0.000000 0.000000 -0.000000 108.382000 91.878100 176.300000 -84.577500 39.107200 176.865000 15.735700 0.000005 -0.000001 128.204000 81.677400 -128.774000 8.984550 -0.406207 -0.000000 5.434650 10.283000 -1.629460 16.377300 -0.000001 -0.000001 0.467192 3.979250 0.493422 6.456720 -0.000001 -0.000000 -2.126210 1.806750 0.014594 12.994200 -0.242716 4.980390 -87.748900 -5.463710 -67.567100 5.348090 -0.000007 -0.000001 -72.863500 47.235300 40.632100 24.328600 0.000019 0.000005 6.784460 1.507760 -77.528500 22.291600 -0.000001 0.000005 2.789040 5.551630 -8.783170 12.994500 -0.242716 -4.980390 89.795100 1.341160 -81.309600 -5.348130 -0.000001 -0.000004 -45.278300 29.217800 -55.557500 -24.328900 0.000322 -0.000009 -12.690900 5.490850 -113.020000 -22.291500 -0.000108 -0.000004 22.575200 5.588490 -10.676800 -2.192480 -6.469440 -0.000000 179.521000 -0.416428 -28.195700 39.081100 -0.000007 -0.000012 0.027707 -0.014502 62.364000 40.985400 -0.000006 -0.000013 8.737430 -1.914190 -63.062900 11.754300 -0.000000 0.000003 -0.008751 -0.094068 -20.408100 -2.192510 6.469440 -0.000001 169.376000 30.844200 -179.114000 -39.081100 -0.002282 -0.040193 0.011010 -0.016624 24.845200 -40.985400 0.000008 0.000006 -4.425500 14.015500 -56.615300 -11.754300 -0.000006 -0.000006 -0.028289 -0.209510 -25.152200
